Comentem!!! comment!!!

Format                           : AVI
Format/Info                      : Audio Video Interleave
Format profile                   : OpenDML
File size                        : 1.07 GiB
Duration                         : 53mn 53s
Overall bit rate                 : 2 831 Kbps
Writing application              : MEncoder SVN-r30881(20100311-gcc4.3.3)
Writing library                  : MPlayer

Video
ID                               : 0
Format                           : MPEG-4 Visual
Format profile                   : Advanced Simple@L5
Format settings, BVOP            : Yes
Format settings, QPel            : No
Format settings, GMC             : No warppoints
Format settings, Matrix          : Default (H.263)
Codec ID                         : XVID
Codec ID/Hint                    : XviD
Duration                         : 53mn 53s
Bit rate                         : 2 379 Kbps
Width                            : 720 pixels
Height                           : 480 pixels
Display aspect ratio             : 16:9
Frame rate                       : 24.000 fps
Standard                         : NTSC
Color space                      : YUV
Chroma subsampling               : 4:2:0
Bit depth                        : 8 bits
Scan type                        : Progressive
Compression mode                 : Lossy
Bits/(Pixel*Frame)               : 0.287
Stream size                      : 917 MiB (84%)
Writing library                  : XviD 1.2.1 (UTC 2008-12-04)

Audio
ID                               : 1
Format                           : AC-3
Format/Info                      : Audio Coding 3
Mode extension                   : CM (complete main)
Codec ID                         : 2000
Duration                         : 53mn 34s
Bit rate mode                    : Constant
Bit rate                         : 448 Kbps
Channel(s)                       : 6 channels
Channel positions                : Front: L C R, Side: L R, LFE
Sampling rate                    : 48.0 KHz
Bit depth                        : 16 bits
Compression mode                 : Lossy
Video delay                      : 42ms
Stream size                      : 172 MiB (16%)
Alignment                        : Split accross interleaves
Interleave, duration             : 503 ms (12.07 video frames)
Interleave, preload duration     : 500 ms


PlayList:

1.	\"Ai Se Eu Te Pego\"  	
2.	\"Humilde Residência\"
3.	\"Coincidência\"   	 	 
4.	\"Se Intrometeu\"  	 	 
5.	\"Se Eu Não For\"  	 	 
6.	\"Pra ser Perfeito\"  	 	 
7.	\"Desce do Muro\"  	 	 
8.	\"Pensamentos Bons  	 	 
9.	\"Te Amo e Open Bar\"  	 	 
10.	\"Fugidinha\"  	
11.	\"Ponto Certo\"  	 	 
12.	\"Vamo Mexer Part. Bruninho e Davi\"  	 	 
13.	\"É Mara\"  	 	 
14.	\"Pot-pourri: Telefone Mudo / Boate Azul\"  	 	 
15.	\"Vida bela Vida\"  	 	 
16.	\"Ei, Psiu! Beijo Me Liga\"  

Comentem!!! comment!!!